<svg xmlns="http://www.w3.org/2000/svg" xmlns:xlink="http://www.w3.org/1999/xlink" width="1920" zoomAndPan="magnify" viewBox="0 0 1440 809.999993" height="1080" preserveAspectRatio="xMidYMid meet" version="1.0"><defs><clipPath id="3e91302b49"><path d="M 333.925781 31.972656 L 1106.460938 31.972656 L 1106.460938 777.445312 L 333.925781 777.445312 Z M 333.925781 31.972656 " clip-rule="nonzero"/></clipPath></defs><rect x="-144" width="1728" fill="#ffffff" y="-80.999999" height="971.999992" fill-opacity="1"/><path fill="#000000" d="M 387.226562 85.21875 L 413.863281 85.21875 L 413.863281 111.84375 L 387.226562 111.84375 Z M 387.226562 85.21875 " fill-opacity="1" fill-rule="nonzero"/><path fill="#000000" d="M 440.503906 85.21875 L 467.140625 85.21875 L 467.140625 111.84375 L 440.503906 111.84375 Z M 440.503906 85.21875 " fill-opacity="1" fill-rule="nonzero"/><path fill="#000000" d="M 493.777344 85.21875 L 520.414062 85.21875 L 520.414062 111.84375 L 493.777344 111.84375 Z M 493.777344 85.21875 " fill-opacity="1" fill-rule="nonzero"/><g clip-path="url(#3e91302b49)"><path fill="#000000" d="M 1053.160156 31.972656 L 387.226562 31.972656 C 385.484375 31.972656 383.742188 32.0625 382.007812 32.234375 C 380.273438 32.40625 378.546875 32.664062 376.839844 33.003906 C 375.128906 33.347656 373.4375 33.769531 371.769531 34.277344 C 370.101562 34.785156 368.460938 35.375 366.847656 36.042969 C 365.238281 36.710938 363.664062 37.453125 362.125 38.277344 C 360.589844 39.101562 359.09375 39.996094 357.644531 40.964844 C 356.195312 41.933594 354.792969 42.972656 353.445312 44.078125 C 352.097656 45.183594 350.808594 46.351562 349.574219 47.585938 C 348.339844 48.816406 347.171875 50.109375 346.0625 51.457031 C 344.957031 52.804688 343.917969 54.203125 342.949219 55.652344 C 341.980469 57.101562 341.085938 58.59375 340.261719 60.132812 C 339.4375 61.667969 338.691406 63.242188 338.023438 64.851562 C 337.355469 66.460938 336.769531 68.101562 336.261719 69.769531 C 335.753906 71.4375 335.328125 73.125 334.988281 74.835938 C 334.644531 76.546875 334.386719 78.269531 334.214844 80.003906 C 334.042969 81.738281 333.953125 83.476562 333.953125 85.21875 L 333.953125 617.699219 C 333.953125 619.441406 334.042969 621.183594 334.214844 622.917969 C 334.386719 624.652344 334.644531 626.375 334.988281 628.082031 C 335.328125 629.792969 335.753906 631.480469 336.261719 633.148438 C 336.769531 634.816406 337.355469 636.457031 338.023438 638.066406 C 338.691406 639.675781 339.4375 641.25 340.261719 642.789062 C 341.085938 644.324219 341.980469 645.820312 342.949219 647.269531 C 343.917969 648.71875 344.957031 650.117188 346.0625 651.464844 C 347.171875 652.8125 348.339844 654.101562 349.574219 655.332031 C 350.808594 656.566406 352.097656 657.734375 353.445312 658.84375 C 354.792969 659.949219 356.195312 660.984375 357.644531 661.957031 C 359.09375 662.925781 360.585938 663.820312 362.125 664.640625 C 363.664062 665.464844 365.238281 666.210938 366.847656 666.878906 C 368.460938 667.546875 370.101562 668.132812 371.769531 668.640625 C 373.4375 669.148438 375.128906 669.574219 376.839844 669.914062 C 378.546875 670.257812 380.273438 670.511719 382.007812 670.6875 C 383.742188 670.859375 385.484375 670.945312 387.226562 670.949219 L 622.066406 670.949219 L 614.800781 750.820312 L 573.6875 750.820312 L 573.6875 777.445312 L 866.699219 777.445312 L 866.699219 750.820312 L 825.585938 750.820312 L 818.320312 670.949219 L 1053.160156 670.949219 C 1054.902344 670.945312 1056.644531 670.859375 1058.378906 670.6875 C 1060.113281 670.511719 1061.839844 670.257812 1063.546875 669.914062 C 1065.257812 669.574219 1066.949219 669.148438 1068.617188 668.640625 C 1070.285156 668.132812 1071.925781 667.546875 1073.539062 666.878906 C 1075.148438 666.210938 1076.722656 665.464844 1078.261719 664.640625 C 1079.796875 663.820312 1081.292969 662.925781 1082.742188 661.957031 C 1084.191406 660.984375 1085.59375 659.949219 1086.941406 658.84375 C 1088.289062 657.734375 1089.578125 656.566406 1090.8125 655.335938 C 1092.046875 654.101562 1093.214844 652.8125 1094.324219 651.464844 C 1095.429688 650.117188 1096.46875 648.71875 1097.4375 647.269531 C 1098.40625 645.820312 1099.304688 644.324219 1100.125 642.789062 C 1100.949219 641.25 1101.695312 639.675781 1102.363281 638.066406 C 1103.03125 636.457031 1103.617188 634.816406 1104.125 633.148438 C 1104.632812 631.480469 1105.058594 629.792969 1105.398438 628.082031 C 1105.742188 626.375 1106 624.652344 1106.171875 622.917969 C 1106.34375 621.183594 1106.433594 619.441406 1106.433594 617.699219 L 1106.433594 85.21875 C 1106.433594 83.476562 1106.34375 81.738281 1106.171875 80.003906 C 1106 78.269531 1105.742188 76.546875 1105.398438 74.835938 C 1105.058594 73.125 1104.632812 71.4375 1104.125 69.769531 C 1103.617188 68.101562 1103.03125 66.460938 1102.363281 64.851562 C 1101.695312 63.242188 1100.949219 61.667969 1100.125 60.132812 C 1099.304688 58.59375 1098.40625 57.101562 1097.4375 55.652344 C 1096.46875 54.203125 1095.429688 52.804688 1094.324219 51.457031 C 1093.214844 50.109375 1092.046875 48.816406 1090.8125 47.585938 C 1089.578125 46.351562 1088.289062 45.183594 1086.941406 44.078125 C 1085.59375 42.972656 1084.191406 41.933594 1082.742188 40.964844 C 1081.292969 39.996094 1079.796875 39.097656 1078.261719 38.277344 C 1076.722656 37.453125 1075.148438 36.710938 1073.539062 36.042969 C 1071.925781 35.375 1070.285156 34.785156 1068.617188 34.277344 C 1066.949219 33.769531 1065.257812 33.347656 1063.546875 33.003906 C 1061.839844 32.664062 1060.113281 32.40625 1058.378906 32.234375 C 1056.644531 32.0625 1054.902344 31.972656 1053.160156 31.972656 Z M 387.226562 58.597656 L 1053.160156 58.597656 C 1054.03125 58.597656 1054.902344 58.640625 1055.769531 58.726562 C 1056.636719 58.8125 1057.5 58.941406 1058.355469 59.113281 C 1059.210938 59.285156 1060.054688 59.496094 1060.886719 59.75 C 1061.722656 60.003906 1062.542969 60.296875 1063.347656 60.632812 C 1064.152344 60.964844 1064.941406 61.335938 1065.710938 61.75 C 1066.480469 62.160156 1067.226562 62.609375 1067.949219 63.09375 C 1068.675781 63.578125 1069.375 64.097656 1070.050781 64.648438 C 1070.722656 65.203125 1071.367188 65.785156 1071.984375 66.402344 C 1072.601562 67.019531 1073.1875 67.664062 1073.742188 68.339844 C 1074.292969 69.011719 1074.8125 69.710938 1075.296875 70.4375 C 1075.78125 71.160156 1076.230469 71.90625 1076.640625 72.675781 C 1077.054688 73.445312 1077.425781 74.230469 1077.761719 75.035156 C 1078.09375 75.839844 1078.390625 76.660156 1078.640625 77.496094 C 1078.894531 78.328125 1079.109375 79.171875 1079.28125 80.027344 C 1079.449219 80.882812 1079.578125 81.742188 1079.664062 82.613281 C 1079.75 83.480469 1079.796875 84.347656 1079.796875 85.21875 L 1079.796875 138.46875 L 360.589844 138.46875 L 360.589844 85.21875 C 360.589844 84.347656 360.636719 83.480469 360.722656 82.613281 C 360.808594 81.742188 360.9375 80.882812 361.105469 80.027344 C 361.277344 79.171875 361.492188 78.328125 361.746094 77.496094 C 361.996094 76.660156 362.292969 75.839844 362.625 75.035156 C 362.960938 74.230469 363.332031 73.445312 363.746094 72.675781 C 364.15625 71.90625 364.605469 71.160156 365.089844 70.4375 C 365.574219 69.710938 366.09375 69.011719 366.644531 68.339844 C 367.199219 67.664062 367.785156 67.019531 368.402344 66.402344 C 369.019531 65.785156 369.664062 65.203125 370.335938 64.648438 C 371.011719 64.097656 371.710938 63.578125 372.4375 63.09375 C 373.160156 62.609375 373.90625 62.160156 374.675781 61.75 C 375.445312 61.335938 376.234375 60.964844 377.039062 60.632812 C 377.84375 60.296875 378.664062 60.003906 379.5 59.75 C 380.332031 59.496094 381.179688 59.285156 382.03125 59.113281 C 382.886719 58.941406 383.75 58.8125 384.617188 58.726562 C 385.484375 58.640625 386.355469 58.597656 387.226562 58.597656 Z M 1079.796875 165.09375 L 1079.796875 537.828125 L 360.589844 537.828125 L 360.589844 165.09375 Z M 798.839844 750.820312 L 641.546875 750.820312 L 648.8125 670.949219 L 791.574219 670.949219 Z M 1053.160156 644.324219 L 387.226562 644.324219 C 386.355469 644.324219 385.484375 644.277344 384.617188 644.191406 C 383.75 644.105469 382.886719 643.976562 382.03125 643.808594 C 381.179688 643.636719 380.332031 643.421875 379.5 643.171875 C 378.664062 642.917969 377.84375 642.621094 377.039062 642.289062 C 376.234375 641.953125 375.445312 641.582031 374.675781 641.171875 C 373.90625 640.757812 373.160156 640.3125 372.4375 639.828125 C 371.710938 639.34375 371.011719 638.824219 370.335938 638.269531 C 369.664062 637.71875 369.019531 637.132812 368.402344 636.515625 C 367.785156 635.898438 367.199219 635.253906 366.644531 634.582031 C 366.09375 633.90625 365.574219 633.207031 365.089844 632.484375 C 364.605469 631.757812 364.15625 631.011719 363.746094 630.242188 C 363.332031 629.476562 362.960938 628.6875 362.625 627.882812 C 362.292969 627.078125 361.996094 626.257812 361.746094 625.425781 C 361.492188 624.589844 361.277344 623.746094 361.105469 622.890625 C 360.9375 622.035156 360.808594 621.175781 360.722656 620.308594 C 360.636719 619.441406 360.589844 618.570312 360.589844 617.699219 L 360.589844 564.453125 L 1079.796875 564.453125 L 1079.796875 617.699219 C 1079.796875 618.570312 1079.75 619.441406 1079.664062 620.308594 C 1079.578125 621.175781 1079.449219 622.035156 1079.28125 622.890625 C 1079.109375 623.746094 1078.894531 624.589844 1078.644531 625.425781 C 1078.390625 626.257812 1078.09375 627.078125 1077.761719 627.882812 C 1077.425781 628.6875 1077.054688 629.476562 1076.640625 630.242188 C 1076.230469 631.011719 1075.78125 631.757812 1075.296875 632.484375 C 1074.8125 633.207031 1074.292969 633.90625 1073.742188 634.582031 C 1073.1875 635.253906 1072.601562 635.898438 1071.984375 636.515625 C 1071.367188 637.132812 1070.722656 637.71875 1070.050781 638.269531 C 1069.375 638.824219 1068.675781 639.34375 1067.949219 639.828125 C 1067.226562 640.3125 1066.480469 640.757812 1065.710938 641.171875 C 1064.941406 641.582031 1064.152344 641.953125 1063.347656 642.289062 C 1062.542969 642.621094 1061.722656 642.917969 1060.886719 643.171875 C 1060.054688 643.421875 1059.210938 643.636719 1058.355469 643.808594 C 1057.5 643.976562 1056.636719 644.105469 1055.769531 644.191406 C 1054.902344 644.277344 1054.03125 644.324219 1053.160156 644.324219 Z M 1053.160156 644.324219 " fill-opacity="1" fill-rule="nonzero"/></g><path fill="#000000" d="M 706.875 591.074219 L 733.511719 591.074219 L 733.511719 617.699219 L 706.875 617.699219 Z M 706.875 591.074219 " fill-opacity="1" fill-rule="nonzero"/><path fill="#000000" d="M 400.546875 311.523438 L 427.183594 311.523438 L 427.183594 338.148438 L 400.546875 338.148438 Z M 400.546875 311.523438 " fill-opacity="1" fill-rule="nonzero"/><path fill="#000000" d="M 453.820312 311.523438 L 653.601562 311.523438 L 653.601562 338.148438 L 453.820312 338.148438 Z M 453.820312 311.523438 " fill-opacity="1" fill-rule="nonzero"/><path fill="#000000" d="M 400.546875 364.773438 L 427.183594 364.773438 L 427.183594 391.394531 L 400.546875 391.394531 Z M 400.546875 364.773438 " fill-opacity="1" fill-rule="nonzero"/><path fill="#000000" d="M 453.820312 364.773438 L 800.105469 364.773438 L 800.105469 391.394531 L 453.820312 391.394531 Z M 453.820312 364.773438 " fill-opacity="1" fill-rule="nonzero"/><path fill="#000000" d="M 400.546875 418.019531 L 427.183594 418.019531 L 427.183594 444.644531 L 400.546875 444.644531 Z M 400.546875 418.019531 " fill-opacity="1" fill-rule="nonzero"/><path fill="#000000" d="M 453.820312 418.019531 L 706.875 418.019531 L 706.875 444.644531 L 453.820312 444.644531 Z M 453.820312 418.019531 " fill-opacity="1" fill-rule="nonzero"/><path fill="#000000" d="M 400.546875 471.269531 L 427.183594 471.269531 L 427.183594 497.890625 L 400.546875 497.890625 Z M 400.546875 471.269531 " fill-opacity="1" fill-rule="nonzero"/><path fill="#000000" d="M 453.820312 471.269531 L 840.0625 471.269531 L 840.0625 497.890625 L 453.820312 497.890625 Z M 453.820312 471.269531 " fill-opacity="1" fill-rule="nonzero"/><path fill="#000000" d="M 404.445312 254.378906 L 431.085938 281 L 449.921875 262.175781 L 432.699219 244.964844 L 449.921875 227.753906 L 431.085938 208.925781 L 404.445312 235.550781 C 403.828125 236.167969 403.277344 236.839844 402.789062 237.566406 C 402.304688 238.292969 401.894531 239.0625 401.558594 239.871094 C 401.226562 240.675781 400.972656 241.507812 400.800781 242.367188 C 400.632812 243.222656 400.546875 244.089844 400.546875 244.964844 C 400.546875 245.839844 400.632812 246.703125 400.800781 247.5625 C 400.972656 248.417969 401.226562 249.25 401.558594 250.058594 C 401.894531 250.867188 402.304688 251.632812 402.789062 252.359375 C 403.277344 253.085938 403.828125 253.757812 404.445312 254.378906 Z M 404.445312 254.378906 " fill-opacity="1" fill-rule="nonzero"/><path fill="#000000" d="M 537.632812 262.175781 L 556.46875 281 L 583.105469 254.378906 C 583.726562 253.757812 584.277344 253.085938 584.761719 252.359375 C 585.25 251.632812 585.660156 250.867188 585.992188 250.058594 C 586.328125 249.25 586.582031 248.417969 586.75 247.5625 C 586.921875 246.703125 587.007812 245.839844 587.007812 244.964844 C 587.007812 244.089844 586.921875 243.222656 586.75 242.367188 C 586.582031 241.507812 586.328125 240.675781 585.992188 239.871094 C 585.660156 239.0625 585.25 238.292969 584.761719 237.566406 C 584.277344 236.839844 583.726562 236.167969 583.105469 235.550781 L 556.46875 208.925781 L 537.632812 227.753906 L 554.855469 244.964844 Z M 537.632812 262.175781 " fill-opacity="1" fill-rule="nonzero"/><path fill="#000000" d="M 467.820312 280.6875 L 494.460938 200.820312 L 519.730469 209.238281 L 493.089844 289.109375 Z M 467.820312 280.6875 " fill-opacity="1" fill-rule="nonzero"/><path fill="#000000" d="M 826.742188 364.773438 L 906.65625 364.773438 L 906.65625 391.394531 L 826.742188 391.394531 Z M 826.742188 364.773438 " fill-opacity="1" fill-rule="nonzero"/><path fill="#000000" d="M 866.699219 471.269531 L 893.335938 471.269531 L 893.335938 497.890625 L 866.699219 497.890625 Z M 866.699219 471.269531 " fill-opacity="1" fill-rule="nonzero"/><path fill="#000000" d="M 919.972656 471.269531 L 946.609375 471.269531 L 946.609375 497.890625 L 919.972656 497.890625 Z M 919.972656 471.269531 " fill-opacity="1" fill-rule="nonzero"/><path fill="#000000" d="M 680.238281 311.523438 L 706.875 311.523438 L 706.875 338.148438 L 680.238281 338.148438 Z M 680.238281 311.523438 " fill-opacity="1" fill-rule="nonzero"/></svg>